<?xml version="1.0" encoding="UTF-8" standalone="no"?>
<!-- Created with Inkscape (http://www.inkscape.org/) -->

<svg
   xmlns:dc="http://purl.org/dc/elements/1.1/"
   xmlns:cc="http://creativecommons.org/ns#"
   xmlns:rdf="http://www.w3.org/1999/02/22-rdf-syntax-ns#"
   xmlns:svg="http://www.w3.org/2000/svg"
   xmlns="http://www.w3.org/2000/svg"
   xmlns:sodipodi="http://sodipodi.sourceforge.net/DTD/sodipodi-0.dtd"
   xmlns:inkscape="http://www.inkscape.org/namespaces/inkscape"
   id="svg4798"
   sodipodi:docname="icebox.svg"
   viewBox="0 0 579.47264 579.47264"
   version="1.1"
   inkscape:version="0.91 r13725"
   width="579.47266"
   height="579.47266"
   inkscape:export-filename="/Users/m/AndroidStudioProjects/icebox/icebox.png"
   inkscape:export-xdpi="79.519997"
   inkscape:export-ydpi="79.519997">
  <defs
     id="defs4800">
    <filter
       id="filter4229"
       width="1.8432"
       y="-0.42162001"
       x="-0.42162001"
       height="1.8432"
       inkscape:collect="always"
       style="color-interpolation-filters:sRGB">
      <feGaussianBlur
         id="feGaussianBlur4231"
         stdDeviation="1.2705116"
         inkscape:collect="always" />
    </filter>
    <filter
       id="filter4277"
       width="1.9946001"
       y="-0.4973"
       x="-0.4973"
       height="1.9946001"
       inkscape:collect="always"
       style="color-interpolation-filters:sRGB">
      <feGaussianBlur
         id="feGaussianBlur4279"
         stdDeviation="1.4985521"
         inkscape:collect="always" />
    </filter>
  </defs>
  <sodipodi:namedview
     id="base"
     bordercolor="#666666"
     inkscape:pageshadow="2"
     inkscape:window-y="1"
     pagecolor="#ffffff"
     inkscape:window-height="1005"
     inkscape:window-maximized="1"
     inkscape:zoom="0.7"
     inkscape:window-x="4"
     showgrid="false"
     borderopacity="1.0"
     inkscape:current-layer="layer1"
     inkscape:cx="-410.61847"
     inkscape:cy="163.0575"
     inkscape:window-width="1676"
     inkscape:pageopacity="0.0"
     inkscape:document-units="px"
     fit-margin-top="0"
     fit-margin-left="0"
     fit-margin-right="0"
     fit-margin-bottom="0" />
  <g
     id="layer1"
     inkscape:label="Layer 1"
     inkscape:groupmode="layer"
     transform="translate(-52.645067,-17.394243)">
    <circle
       cy="307.13058"
       cx="342.38141"
       style="fill:#48ffff;fill-rule:evenodd;stroke:#009999;stroke-width:20.73818588"
       id="path4530"
       r="279.36725" />
    <circle
       r="3.6160715"
       cy="293.29968"
       cx="221.91965"
       transform="matrix(27.658271,0,0,27.658271,-5907.1849,-7945.726)"
       style="opacity:0.79358;fill:#f2f2f2;fill-rule:evenodd;filter:url(#filter4229)"
       id="path4532" />
    <path
       d="m 405.66,366.78 c -5.603,0 -10.156,4.5533 -10.156,10.156 0,5.603 4.5533,10.125 10.156,10.125 5.603,0 10.125,-4.522 10.125,-10.125 0,-5.603 -4.522,-10.156 -10.125,-10.156 z"
       inkscape:connector-curvature="0"
       style="opacity:0.81192998;fill:#f2f2f2;fill-rule:evenodd;filter:url(#filter4277)"
       id="path4534"
       transform="matrix(20.738,0,0,20.738,-8062.9,-7498.2)" />
    <g
       transform="matrix(20.737585,0.13568873,-0.13568873,20.737585,-5441.202,-7446.6267)"
       id="g4598">
      <path
         d="m 275.32,361.69 c -0.0381,0.008 0.0233,0.096 0.004,0.10505 0.54643,0.22928 3.3128,0.72559 5.9311,1.5898 2.632,-0.91219 5.4624,-1.4317 5.9292,-1.6646 -0.005,-0.0567 -0.0269,-0.10259 -0.003,-0.10503 -0.45914,-0.0884 -2.2535,-0.0459 -5.9843,-0.0133 -3.7308,0.0326 -5.4185,-0.008 -5.876,0.088 z m 11.864,0.03 c 0.0406,0.52025 1.0911,3.2024 1.6646,5.9292 2.0611,1.7926 3.8768,3.9344 4.3394,4.2666 -0.42549,0.29246 -2.22,2.4908 -4.2666,4.3394 -0.51923,2.7732 -1.5541,5.5081 -1.5863,6.036 -0.46435,-0.22157 -3.2061,-0.6459 -5.8228,-1.4883 -2.6114,0.91729 -5.4912,1.3231 -6.0375,1.5632 -0.0756,-0.59256 -1.1064,-3.2157 -1.6646,-5.9292 -2.1026,-1.822 -3.9049,-3.9791 -4.3394,-4.2666 0.43326,-0.29777 2.1694,-2.5769 4.2631,-4.4443 0.53124,-2.7016 1.5584,-5.4168 1.5898,-5.9311 -0.02,0.008 -0.10034,-0.007 -0.10504,0.004 -0.30618,0.35345 -1.2482,1.8932 -3.0855,5.1404 -1.8372,3.2472 -2.6255,4.6857 -2.7709,5.1301 -0.0869,0.12647 0.69663,1.613 2.9057,5.3635 2.0513,3.4826 2.9731,4.8614 3.21,5.0386 0.27378,0.11194 1.8412,0.15684 5.8829,0.12145 3.7308,-0.0326 5.5199,-0.10008 5.9774,-0.19643 0.0104,0.01 0.10939,-0.0137 0.10503,-0.004 0.30617,-0.35346 1.1433,-1.8898 2.9806,-5.137 2.1434,-3.7884 2.9581,-5.2183 2.8688,-5.3433 -0.15292,-0.44181 -1.0053,-1.939 -2.8988,-5.1538 -1.8935,-3.2147 -2.7929,-4.694 -3.1051,-5.042 -0.003,-0.01 -0.0839,0.0129 -0.10504,0.004 z m -13.45,6.0059 c -0.32064,1.6307 -0.39488,3.2121 -0.065,4.4113 -0.29597,1.1545 -0.17933,2.7417 0.14129,4.2996 0.0207,0.0161 0.0857,-0.0196 0.10504,-0.003 0.56998,-1.6818 1.3706,-3.3221 2.4838,-4.2808 -1.1582,-0.92347 -1.8434,-2.6367 -2.4518,-4.3286 1.7775,-0.34698 3.6612,-0.61706 5.0371,-0.0604 0.20896,-1.4004 1.0816,-2.8388 2.1727,-4.1656 l 0.20973,-0.007 c 1.1572,1.3332 2.2296,2.7913 2.4484,4.2237 1.3632,-0.5569 3.062,-0.36701 4.8273,-0.0535 -0.56791,1.6588 -1.1713,3.3358 -2.2741,4.274 1.1582,0.92353 1.8434,2.6368 2.4518,4.3286 0.0374,-0.0349 0.064,-0.0746 0.10158,-0.10848 0.29827,-1.593 0.40963,-3.153 0.0684,-4.3064 0.29323,-1.177 0.19079,-2.7199 -0.14128,-4.2996 -1.1926,-1.0372 -2.4859,-1.844 -3.6413,-2.1899 -0.0139,-0.0129 -0.0818,0.0161 -0.10503,0.003 -0.85412,-0.86267 -2.2962,-1.5662 -3.8476,-2.0781 -1.5171,0.52581 -2.9579,1.1642 -3.818,2.0151 -1.1725,0.30929 -2.4858,1.2408 -3.7028,2.3263 z m 15.086,8.6375 c -1.7913,0.34945 -3.6656,0.42483 -5.0439,-0.14902 -0.1982,1.4517 -1.1235,3.0126 -2.2706,4.3788 -1.1926,-1.3598 -2.3098,-2.7507 -2.5532,-4.2203 -1.3989,0.57144 -3.2286,0.38996 -5.0371,0.0604 1.2004,1.0335 2.3882,1.9835 3.5399,2.2982 0.88257,0.9002 2.4367,1.5495 4.0573,2.0713 1.5004,-0.52701 2.7657,-1.2656 3.6049,-2.1131 0.0297,-0.0143 0.0702,-0.0842 0.10158,-0.10849 1.149,-0.33237 2.4155,-1.1602 3.6014,-2.218 z m -9.8678,0.009 c 1.2899,-0.52736 2.2292,-1.7571 2.281,-4.0642 -2.0215,1.2555 -2.5143,2.6578 -2.281,4.0642 z m 4.8239,-0.15853 c 0.18497,-1.3536 -0.34578,-2.6305 -2.2248,-3.8112 0.12278,2.1532 1.0006,3.3013 2.2248,3.8112 z m -2.2248,-3.8112 c -0.005,-0.0993 -0.005,-0.10635 -0.007,-0.20974 -0.0422,0.0249 -0.0645,-0.0214 -0.10502,0.004 0.024,0.0126 -0.0206,0.091 0.004,0.10503 0.019,0.0665 0.0559,0.0684 0.10848,0.10158 z m 4.817,-0.36826 c -1.1,-0.87749 -2.695,-1.1552 -4.7259,-0.0547 2.0822,1.085 3.6354,0.98242 4.7259,0.0547 z m -2.5532,-4.2203 c -1.2554,0.51325 -2.1982,1.5628 -2.2913,3.7496 1.8652,-1.2134 2.4973,-2.3987 2.2913,-3.7496 z m -2.2913,3.7494 c -0.0806,0.0527 -0.008,0.26633 -0.0947,0.31789 0.061,0.0339 0.0493,0.07 0.10848,0.10159 -0.003,-0.16756 -0.0221,-0.26232 -0.0138,-0.41948 z m -2.5394,-3.8008 c -0.21059,1.4119 0.1829,2.6946 2.2283,3.916 -0.0977,-2.2567 -0.96134,-3.4035 -2.2283,-3.916 z m -2.5852,4.3892 c 1.0958,0.8737 2.4904,0.93836 4.5093,-0.14818 -2.077,-1.0715 -3.4225,-0.78775 -4.5093,0.14818 z m 4.5093,-0.14818 c 0.0418,0.0221 0.0734,0.087 0.10849,0.10157 0.0785,-0.0452 0.12621,-0.0646 0.20628,-0.11192 -9.1e-4,-0.0581 -0.002,-0.0494 -0.003,-0.10505 -0.11041,0.0647 -0.20403,0.0578 -0.31099,0.11539 z"
         inkscape:connector-curvature="0"
         style="fill:#00a3b6"
         id="path4591" />
      <path
         inkscape:connector-curvature="0"
         style="fill:#00cee7;fill-opacity:0.72881003"
         d="m 275.64,362.24 c -0.0361,0.008 0.022,0.0909 0.004,0.0994 0.51721,0.21702 3.1356,0.6868 5.614,1.5048 2.4912,-0.86342 5.1704,-1.3552 5.6122,-1.5756 -0.005,-0.0537 -0.0255,-0.0971 -0.003,-0.0994 -0.4346,-0.0837 -2.133,-0.0434 -5.6644,-0.0126 -3.5313,0.0308 -5.1288,-0.008 -5.5618,0.0833 z m 11.229,0.0284 c 0.0384,0.49244 1.0327,3.0312 1.5756,5.6122 1.9509,1.6967 3.6695,3.7241 4.1074,4.0385 -0.40274,0.27683 -2.1013,2.3577 -4.0385,4.1074 -0.49147,2.6249 -1.471,5.2136 -1.5015,5.7133 -0.43953,-0.20972 -3.0347,-0.61137 -5.5115,-1.4088 -2.4718,0.86824 -5.1976,1.2523 -5.7147,1.4796 -0.0716,-0.56088 -1.0472,-3.0438 -1.5756,-5.6122 -1.9902,-1.7246 -3.6962,-3.7663 -4.1074,-4.0385 0.41009,-0.28185 2.0534,-2.4391 4.0352,-4.2067 0.50284,-2.5571 1.4751,-5.1272 1.5048,-5.614 -0.0189,0.008 -0.095,-0.007 -0.0994,0.004 -0.28981,0.33455 -1.1815,1.792 -2.9205,4.8656 -1.739,3.0736 -2.4852,4.4352 -2.6227,4.8558 -0.0822,0.11971 0.65939,1.5268 2.7504,5.0767 1.9416,3.2964 2.8142,4.6015 3.0384,4.7692 0.25914,0.10595 1.7428,0.14845 5.5684,0.11495 3.5313,-0.0308 5.2248,-0.0947 5.6578,-0.18592 0.01,0.009 0.10354,-0.013 0.0994,-0.004 0.2898,-0.33456 1.0822,-1.7888 2.8212,-4.8624 2.0288,-3.5858 2.7999,-4.9393 2.7154,-5.0576 -0.14474,-0.41819 -0.95157,-1.8354 -2.7438,-4.8782 -1.7923,-3.0428 -2.6436,-4.443 -2.9391,-4.7724 -0.003,-0.009 -0.0794,0.0122 -0.0994,0.004 z m -12.731,5.6848 c -0.3035,1.5435 -0.37377,3.0404 -0.0615,4.1755 -0.28015,1.0928 -0.16975,2.5952 0.13373,4.0697 0.0196,0.0152 0.0811,-0.0186 0.0994,-0.003 0.5395,-1.5919 1.2973,-3.1445 2.351,-4.052 -1.0962,-0.8741 -1.7449,-2.4958 -2.3207,-4.0972 1.6824,-0.32843 3.4655,-0.58407 4.7678,-0.0572 0.19779,-1.3256 1.0238,-2.687 2.0565,-3.9429 l 0.19852,-0.007 c 1.0953,1.262 2.1104,2.6421 2.3175,3.9979 1.2904,-0.52713 2.8983,-0.34739 4.5692,-0.0506 -0.53755,1.5701 -1.1086,3.1574 -2.1525,4.0454 1.0962,0.87416 1.7448,2.4958 2.3207,4.0972 0.0354,-0.033 0.0606,-0.0706 0.0961,-0.10268 0.28232,-1.5079 0.38773,-2.9844 0.0647,-4.0762 0.27755,-1.1141 0.18059,-2.5745 -0.13373,-4.0697 -1.1288,-0.98176 -2.353,-1.7454 -3.4466,-2.0728 -0.0131,-0.0122 -0.0774,0.0152 -0.0994,0.003 -0.80846,-0.81655 -2.1735,-1.4824 -3.6419,-1.967 -1.436,0.49769 -2.7998,1.1019 -3.6139,1.9074 -1.1098,0.29275 -2.3529,1.1744 -3.5049,2.2019 z m 14.28,8.1757 c -1.6955,0.33077 -3.4696,0.40212 -4.7743,-0.14105 -0.1876,1.3741 -1.0634,2.8516 -2.1492,4.1447 -1.1289,-1.287 -2.1863,-2.6037 -2.4167,-3.9946 -1.3241,0.54089 -3.056,0.36911 -4.7678,0.0572 1.1362,0.97828 2.2605,1.8775 3.3506,2.1753 0.83538,0.85207 2.3065,1.4667 3.8404,1.9605 1.4201,-0.49883 2.6179,-1.1979 3.4121,-2.0001 0.0281,-0.0135 0.0664,-0.0797 0.0961,-0.10269 1.0875,-0.3146 2.2864,-1.0982 3.4089,-2.0994 z m -9.3402,0.009 c 1.2209,-0.49916 2.11,-1.6632 2.159,-3.8469 -1.9134,1.1884 -2.3799,2.5157 -2.159,3.8469 z m 4.566,-0.15005 c 0.17508,-1.2812 -0.32729,-2.4898 -2.1059,-3.6074 0.11621,2.0381 0.94713,3.1248 2.1059,3.6074 z m -2.1059,-3.6074 c -0.005,-0.094 -0.005,-0.10067 -0.007,-0.19853 -0.0399,0.0236 -0.061,-0.0203 -0.0994,0.004 0.0227,0.0119 -0.0195,0.0861 0.004,0.0994 0.018,0.0629 0.0529,0.0647 0.10268,0.0961 z m 4.5594,-0.34858 c -1.0412,-0.83057 -2.5509,-1.0934 -4.4732,-0.0518 1.9708,1.027 3.441,0.92989 4.4732,0.0518 z m -2.4167,-3.9946 c -1.1883,0.48581 -2.0807,1.4792 -2.1688,3.5491 1.7655,-1.1486 2.3638,-2.2705 2.1688,-3.5491 z m -2.1688,3.549 c -0.0763,0.0499 -0.008,0.25209 -0.0896,0.30089 0.0577,0.0321 0.0467,0.0663 0.10268,0.0962 -0.003,-0.1586 -0.0209,-0.24829 -0.0131,-0.39705 z m -2.4037,-3.5976 c -0.19933,1.3364 0.17312,2.5505 2.1092,3.7067 -0.0925,-2.1361 -0.90995,-3.2215 -2.1092,-3.7067 z m -2.447,4.1545 c 1.0372,0.82699 2.3572,0.88819 4.2682,-0.14025 -1.9659,-1.0142 -3.2395,-0.74564 -4.2682,0.14025 z m 4.2682,-0.14025 c 0.0396,0.0209 0.0695,0.0823 0.10268,0.0961 0.0743,-0.0428 0.11947,-0.0611 0.19526,-0.10593 -8.7e-4,-0.055 -0.002,-0.0468 -0.003,-0.0994 -0.10451,0.0612 -0.19313,0.0547 -0.29437,0.10922 z"
         id="path4596" />
    </g>
  </g>
  <metadata
     id="metadata17">
    <rdf:RDF>
      <cc:Work>
        <dc:format>image/svg+xml</dc:format>
        <dc:type
           rdf:resource="http://purl.org/dc/dcmitype/StillImage" />
        <cc:license
           rdf:resource="http://creativecommons.org/publicdomain/zero/1.0/" />
        <dc:publisher>
          <cc:Agent
             rdf:about="http://openclipart.org/">
            <dc:title>Openclipart</dc:title>
          </cc:Agent>
        </dc:publisher>
        <dc:title />
      </cc:Work>
      <cc:License
         rdf:about="http://creativecommons.org/publicdomain/zero/1.0/">
        <cc:permits
           rdf:resource="http://creativecommons.org/ns#Reproduction" />
        <cc:permits
           rdf:resource="http://creativecommons.org/ns#Distribution" />
        <cc:permits
           rdf:resource="http://creativecommons.org/ns#DerivativeWorks" />
      </cc:License>
    </rdf:RDF>
  </metadata>
</svg>
